Coordinates
version=1
nRows=10
nColumns=34
inDegrees=yes

Units are S.I. units (second, meters, Newtons, ...)
If the header above contains a line with 'inDegrees', this indicates whether rotational values are in degrees (yes) or radians (no).

endheader
time	pelvis_tilt	pelvis_list	pelvis_rotation	pelvis_tx	pelvis_ty	pelvis_tz	hip_flexion_r	hip_adduction_r	hip_rotation_r	knee_angle_r	ankle_angle_r	subtalar_angle_r	mtp_angle_r	hip_flexion_l	hip_adduction_l	hip_rotation_l	knee_angle_l	ankle_angle_l	subtalar_angle_l	mtp_angle_l	lumbar_extension	lumbar_bending	lumbar_rotation	arm_flex_r	arm_add_r	arm_rot_r	elbow_flex_r	pro_sup_r	arm_flex_l	arm_add_l	arm_rot_l	elbow_flex_l	pro_sup_l
      3.88333330	    -33.03144640	      1.11782735	      0.16286047	      0.22535657	      0.57767306	     -0.08780895	    100.75566904	    -19.56750962	     -1.48593795	    104.53118253	     34.96991249	    -13.91277967	      0.00000000	    102.75161900	    -13.55681853	      0.07256486	    103.76921773	     25.73435104	    -15.82244716	      0.00000000	    -20.27844689	      0.78133209	     -2.29615709	    110.71202039	     -0.43054661	     52.66707977	    125.59664803	     86.23865423	    121.36083267	      6.25932156	     65.55928350	    121.78853005	     70.33982914
      3.90000000	    -32.46415391	      1.27028069	     -0.04150435	      0.22837770	      0.59135472	     -0.08584868	     98.46238085	    -19.23478226	     -2.02372507	    102.24658869	     34.23879676	    -13.82033747	      0.00000000	    100.35653250	    -13.54088322	     -0.47924231	    101.64303004	     25.27263706	    -15.78294242	      0.00000000	    -19.64118533	      0.51946462	     -2.48042457	    109.64615272	     -0.13497778	     53.24855653	    126.12996521	     86.30481505	    120.47920148	      5.74040277	     65.40620879	    122.05712553	     70.46631397
      3.91666670	    -31.72775125	      1.52193742	     -0.21450686	      0.23133801	      0.60699016	     -0.08620283	     95.90922244	    -18.88614773	     -2.40993144	     99.85033422	     33.71675227	    -14.11265060	      0.00000000	     97.51826049	    -13.46253787	     -1.17825924	     99.28494637	     25.06609939	    -15.93775372	      0.00000000	    -19.12804165	      0.35392489	     -2.54429084	    108.77855356	      0.05749439	     54.04547044	    126.20710760	     86.43140540	    119.28828427	      5.63261231	     65.54345490	    122.17811606	     70.67852239
      3.93333330	    -31.05423021	      1.77580582	     -0.42894408	      0.23398146	      0.62201699	     -0.08753237	     93.37891570	    -18.60332316	     -2.72728884	     97.39637215	     33.08159898	    -14.10781331	      0.00000000	     94.79525868	    -13.42287138	     -1.94534895	     96.97651608	     24.68492359	    -16.12040032	      0.00000000	    -18.49204225	      0.18438851	     -2.41224343	    107.77188797	      0.16340526	     54.92141560	    125.98637438	     86.55122378	    118.14733332	      5.61790029	     66.02235758	    122.22119766	     70.89475723
      3.95000000	    -30.51055401	      1.98746158	     -0.55014567	      0.23358880	      0.63586124	     -0.08631304	     91.07545892	    -18.31464040	     -3.07509245	     94.92101010	     32.53679676	    -14.27919675	      0.00000000	     92.36614486	    -13.21536160	     -2.65984816	     94.57914494	     24.28353727	    -16.51311033	      0.00000000	    -17.96146843	     -0.07442850	     -2.38697983	    107.22050557	      0.32168792	     55.21484332	    125.43857981	     86.61933676	    117.27792295	      5.09677486	     65.52925961	    122.19056184	     71.11850156
      3.96666670	    -29.95756394	      2.16899393	     -0.67325689	      0.23817615	      0.65182943	     -0.08575551	     88.60886394	    -18.01217669	     -3.47327262	     92.30552630	     31.77491085	    -14.56964833	      0.00000000	     89.77154889	    -13.01953443	     -3.31776139	     91.98755489	     23.55438775	    -17.00351692	      0.00000000	    -17.41222059	     -0.18450552	     -2.35595330	    106.37824982	      0.77751040	     55.40171149	    124.45404687	     86.70801715	    116.02669598	      4.47560670	     64.54252977	    122.40540664	     71.52707895
      3.98333330	    -29.49503543	      2.34784167	     -0.85061714	      0.24370935	      0.66435570	     -0.08623291	     86.21650667	    -17.77291529	     -3.87543667	     89.83942866	     31.35598155	    -14.55360738	      0.00000000	     87.31481028	    -12.90946812	     -3.84077978	     89.68565518	     23.32672300	    -16.94149349	      0.00000000	    -16.37536341	     -0.46486873	     -2.17818246	    104.98865470	      0.89866059	     56.14106492	    124.79432012	     86.77289345	    114.31479423	      4.22406375	     64.91026965	    123.30013287	     71.73283054
      4.00000000	    -29.04584750	      2.45492955	     -0.99528239	      0.24934792	      0.68002400	     -0.08599859	     83.66769090	    -17.53265180	     -4.31252264	     87.24901460	     30.68515102	    -14.62762079	      0.00000000	     84.70393015	    -12.70859007	     -4.29714343	     87.12696799	     23.07944876	    -16.69090534	      0.00000000	    -15.20216189	     -0.66182219	     -1.97755255	    103.52322280	      1.00157013	     56.95725505	    124.94816789	     86.85421649	    112.44160208	      4.32006321	     65.56910962	    124.06117239	     71.95314284
      4.01666670	    -28.58487006	      2.58705985	     -1.09539252	      0.25276305	      0.69804038	     -0.08750105	     80.96729753	    -17.36043449	     -4.81823372	     84.27947910	     29.58642776	    -15.17329792	      0.00000000	     81.94273774	    -12.37689232	     -4.93345401	     84.24859311	     22.62615455	    -16.56959407	      0.00000000	    -14.18175261	     -0.77800430	     -1.93274930	    101.90497611	      0.85757176	     57.96475256	    125.06733768	     86.96703120	    110.57369536	      4.08274930	     65.85494981	    124.50096761	     72.18746488
      4.03333330	    -28.18976194	      2.67343463	     -1.22422978	      0.25526808	      0.71224975	     -0.08811482	     78.40438160	    -17.15165249	     -5.31864543	     81.17327247	     28.41960149	    -15.63912406	      0.00000000	     79.32499826	    -12.00671156	     -5.47959758	     81.31538751	     22.00899222	    -16.63858994	      0.00000000	    -13.23660960	     -0.75101900	     -1.78943385	    100.77158557	      0.77670677	     58.76038195	    125.02848233	     87.06419181	    109.18447812	      3.98882240	     66.24389526	    124.50331297	     72.42150318
